TITLE ""
FILE "1Q_j_2328-2341.mp3" MP3
  TRACK 01 AUDIO
    TITLE "1Q_j_2328-2341_01"
    INDEX 01 00:00:00
  TRACK 02 AUDIO
    TITLE "1Q_j_2328-2341_02"
    INDEX 01 00:00:12
  TRACK 03 AUDIO
    TITLE "1Q_j_2328-2341_03"
    INDEX 01 00:01:47
  TRACK 04 AUDIO
    TITLE "1Q_j_2328-2341_04"
    INDEX 01 00:01:55
  TRACK 05 AUDIO
    TITLE "1Q_j_2328-2341_05"
    INDEX 01 00:04:34
  TRACK 06 AUDIO
    TITLE "1Q_j_2328-2341_06"
    INDEX 01 00:04:41
  TRACK 07 AUDIO
    TITLE "1Q_j_2328-2341_07"
    INDEX 01 00:10:24
  TRACK 08 AUDIO
    TITLE "1Q_j_2328-2341_08"
    INDEX 01 00:10:73
  TRACK 09 AUDIO
    TITLE "1Q_j_2328-2341_09"
    INDEX 01 00:12:35
  TRACK 10 AUDIO
    TITLE "1Q_j_2328-2341_10"
    INDEX 01 00:12:43
  TRACK 11 AUDIO
    TITLE "1Q_j_2328-2341_11"
    INDEX 01 00:14:34
  TRACK 12 AUDIO
    TITLE "1Q_j_2328-2341_12"
    INDEX 01 00:14:42
  TRACK 13 AUDIO
    TITLE "1Q_j_2328-2341_13"
    INDEX 01 00:21:09
  TRACK 14 AUDIO
    TITLE "1Q_j_2328-2341_14"
    INDEX 01 00:21:58
  TRACK 15 AUDIO
    TITLE "1Q_j_2328-2341_15"
    INDEX 01 00:23:09
  TRACK 16 AUDIO
    TITLE "1Q_j_2328-2341_16"
    INDEX 01 00:23:17
  TRACK 17 AUDIO
    TITLE "1Q_j_2328-2341_17"
    INDEX 01 00:27:62
  TRACK 18 AUDIO
    TITLE "1Q_j_2328-2341_18"
    INDEX 01 00:27:70
  TRACK 19 AUDIO
    TITLE "1Q_j_2328-2341_19"
    INDEX 01 00:32:18
  TRACK 20 AUDIO
    TITLE "1Q_j_2328-2341_20"
    INDEX 01 00:32:65
  TRACK 21 AUDIO
    TITLE "1Q_j_2328-2341_21"
    INDEX 01 00:34:29
  TRACK 22 AUDIO
    TITLE "1Q_j_2328-2341_22"
    INDEX 01 00:34:37
  TRACK 23 AUDIO
    TITLE "1Q_j_2328-2341_23"
    INDEX 01 00:36:43
  TRACK 24 AUDIO
    TITLE "1Q_j_2328-2341_24"
    INDEX 01 00:36:49
  TRACK 25 AUDIO
    TITLE "1Q_j_2328-2341_25"
    INDEX 01 00:41:27
  TRACK 26 AUDIO
    TITLE "1Q_j_2328-2341_26"
    INDEX 01 00:41:72
  TRACK 27 AUDIO
    TITLE "1Q_j_2328-2341_27"
    INDEX 01 00:43:41
  TRACK 28 AUDIO
    TITLE "1Q_j_2328-2341_28"
    INDEX 01 00:43:49
  TRACK 29 AUDIO
    TITLE "1Q_j_2328-2341_29"
    INDEX 01 00:46:30
  TRACK 30 AUDIO
    TITLE "1Q_j_2328-2341_30"
    INDEX 01 00:46:36
  TRACK 31 AUDIO
    TITLE "1Q_j_2328-2341_31"
    INDEX 01 00:52:13
  TRACK 32 AUDIO
    TITLE "1Q_j_2328-2341_32"
    INDEX 01 00:52:58
  TRACK 33 AUDIO
    TITLE "1Q_j_2328-2341_33"
    INDEX 01 00:54:04
  TRACK 34 AUDIO
    TITLE "1Q_j_2328-2341_34"
    INDEX 01 00:54:16
  TRACK 35 AUDIO
    TITLE "1Q_j_2328-2341_35"
    INDEX 01 00:56:68
  TRACK 36 AUDIO
    TITLE "1Q_j_2328-2341_36"
    INDEX 01 00:57:00
  TRACK 37 AUDIO
    TITLE "1Q_j_2328-2341_37"
    INDEX 01 01:04:18
  TRACK 38 AUDIO
    TITLE "1Q_j_2328-2341_38"
    INDEX 01 01:04:63
  TRACK 39 AUDIO
    TITLE "1Q_j_2328-2341_39"
    INDEX 01 01:06:11
  TRACK 40 AUDIO
    TITLE "1Q_j_2328-2341_40"
    INDEX 01 01:06:23
  TRACK 41 AUDIO
    TITLE "1Q_j_2328-2341_41"
    INDEX 01 01:08:41
  TRACK 42 AUDIO
    TITLE "1Q_j_2328-2341_42"
    INDEX 01 01:08:47
  TRACK 43 AUDIO
    TITLE "1Q_j_2328-2341_43"
    INDEX 01 01:14:32
  TRACK 44 AUDIO
    TITLE "1Q_j_2328-2341_44"
    INDEX 01 01:15:04
  TRACK 45 AUDIO
    TITLE "1Q_j_2328-2341_45"
    INDEX 01 01:16:10
  TRACK 46 AUDIO
    TITLE "1Q_j_2328-2341_46"
    INDEX 01 01:16:31
  TRACK 47 AUDIO
    TITLE "1Q_j_2328-2341_47"
    INDEX 01 01:20:41
  TRACK 48 AUDIO
    TITLE "1Q_j_2328-2341_48"
    INDEX 01 01:20:49
  TRACK 49 AUDIO
    TITLE "1Q_j_2328-2341_49"
    INDEX 01 01:25:42
  TRACK 50 AUDIO
    TITLE "1Q_j_2328-2341_50"
    INDEX 01 01:26:14
  TRACK 51 AUDIO
    TITLE "1Q_j_2328-2341_51"
    INDEX 01 01:27:33
  TRACK 52 AUDIO
    TITLE "1Q_j_2328-2341_52"
    INDEX 01 01:27:41
  TRACK 53 AUDIO
    TITLE "1Q_j_2328-2341_53"
    INDEX 01 01:31:27
  TRACK 54 AUDIO
    TITLE "1Q_j_2328-2341_54"
    INDEX 01 01:31:35
  TRACK 55 AUDIO
    TITLE "1Q_j_2328-2341_55"
    INDEX 01 01:36:20
  TRACK 56 AUDIO
    TITLE "1Q_j_2328-2341_56"
    INDEX 01 01:36:65
  TRACK 57 AUDIO
    TITLE "1Q_j_2328-2341_57"
    INDEX 01 01:38:15
  TRACK 58 AUDIO
    TITLE "1Q_j_2328-2341_58"
    INDEX 01 01:38:27
  TRACK 59 AUDIO
    TITLE "1Q_j_2328-2341_59"
    INDEX 01 01:43:04
  TRACK 60 AUDIO
    TITLE "1Q_j_2328-2341_60"
    INDEX 01 01:43:14
  TRACK 61 AUDIO
    TITLE "1Q_j_2328-2341_61"
    INDEX 01 01:46:42
  TRACK 62 AUDIO
    TITLE "1Q_j_2328-2341_62"
    INDEX 01 01:47:16
  TRACK 63 AUDIO
    TITLE "1Q_j_2328-2341_63"
    INDEX 01 01:48:35
  TRACK 64 AUDIO
    TITLE "1Q_j_2328-2341_64"
    INDEX 01 01:48:45
  TRACK 65 AUDIO
    TITLE "1Q_j_2328-2341_65"
    INDEX 01 01:50:34
  TRACK 66 AUDIO
    TITLE "1Q_j_2328-2341_66"
    INDEX 01 01:50:44
  TRACK 67 AUDIO
    TITLE "1Q_j_2328-2341_67"
    INDEX 01 01:57:42
  TRACK 68 AUDIO
    TITLE "1Q_j_2328-2341_68"
    INDEX 01 01:58:12
  TRACK 69 AUDIO
    TITLE "1Q_j_2328-2341_69"
    INDEX 01 01:59:29
  TRACK 70 AUDIO
    TITLE "1Q_j_2328-2341_70"
    INDEX 01 01:59:37
  TRACK 71 AUDIO
    TITLE "1Q_j_2328-2341_71"
    INDEX 01 02:02:19
  TRACK 72 AUDIO
    TITLE "1Q_j_2328-2341_72"
    INDEX 01 02:02:27
  TRACK 73 AUDIO
    TITLE "1Q_j_2328-2341_73"
    INDEX 01 02:07:17
  TRACK 74 AUDIO
    TITLE "1Q_j_2328-2341_74"
    INDEX 01 02:07:66
  TRACK 75 AUDIO
    TITLE "1Q_j_2328-2341_75"
    INDEX 01 02:09:02
  TRACK 76 AUDIO
    TITLE "1Q_j_2328-2341_76"
    INDEX 01 02:09:18
  TRACK 77 AUDIO
    TITLE "1Q_j_2328-2341_77"
    INDEX 01 02:11:40
  TRACK 78 AUDIO
    TITLE "1Q_j_2328-2341_78"
    INDEX 01 02:11:50
  TRACK 79 AUDIO
    TITLE "1Q_j_2328-2341_79"
    INDEX 01 02:16:35
  TRACK 80 AUDIO
    TITLE "1Q_j_2328-2341_80"
    INDEX 01 02:17:05
  TRACK 81 AUDIO
    TITLE "1Q_j_2328-2341_81"
    INDEX 01 02:18:32
  TRACK 82 AUDIO
    TITLE "1Q_j_2328-2341_82"
    INDEX 01 02:18:40
  TRACK 83 AUDIO
    TITLE "1Q_j_2328-2341_83"
    INDEX 01 02:20:45
  TRACK 84 AUDIO
    TITLE "1Q_j_2328-2341_84"
    INDEX 01 02:20:55
  TRACK 85 AUDIO
    TITLE "1Q_j_2328-2341_85"
    INDEX 01 02:27:45
